<?xml version="1.0" standalone="no"?>
<!DOCTYPE svg PUBLIC "-//W3C//DTD SVG 20010904//EN"
 "http://www.w3.org/TR/2001/REC-SVG-20010904/DTD/svg10.dtd">
<svg version="1.0" xmlns="http://www.w3.org/2000/svg"
 width="2384.000000pt" height="1112.000000pt" viewBox="0 0 2384.000000 1112.000000"
 preserveAspectRatio="xMidYMid meet">

<g transform="translate(0.000000,1112.000000) scale(0.100000,-0.100000)"
fill="#000000" stroke="none">
<path d="M8695 11095 c-33 -14 -62 -25 -65 -25 -3 0 -387 -382 -855 -850 -467
-467 -863 -855 -880 -862 -23 -10 -163 -14 -595 -18 l-565 -5 -55 -27 c-43
-22 -118 -91 -350 -323 -199 -199 -309 -301 -337 -315 -42 -20 -62 -20 -1323
-20 -1130 0 -1285 2 -1318 15 -26 11 -225 203 -652 630 -497 497 -625 618
-665 637 -50 23 -53 23 -542 26 l-493 3 0 -76 0 -75 449 0 c377 0 455 -2 492
-15 37 -13 143 -115 664 -634 541 -539 627 -621 675 -642 l55 -24 1335 0 1335
0 58 27 c49 23 107 76 360 329 167 167 316 308 334 315 26 11 133 14 552 14
342 0 538 4 573 11 120 25 102 9 998 904 475 474 857 849 873 855 43 15 6296
14 6334 -2 15 -6 408 -391 873 -854 896 -893 879 -878 998 -903 35 -7 233 -11
575 -11 385 -1 529 -4 549 -13 15 -7 165 -149 333 -315 253 -250 317 -309 363
-330 l57 -27 1335 0 1335 0 55 24 c48 21 134 103 675 642 521 519 627 621 664
634 37 13 115 15 492 15 l449 0 0 75 0 75 -479 0 c-466 0 -481 -1 -538 -22
-55 -20 -92 -55 -678 -639 -429 -428 -631 -623 -657 -634 -33 -13 -187 -15
-1318 -15 -1135 0 -1285 2 -1318 16 -24 10 -140 118 -342 319 -236 235 -316
309 -355 327 -50 23 -51 23 -615 28 -432 4 -572 8 -595 18 -16 7 -412 395
-880 861 -750 748 -856 851 -905 872 l-55 24 -3175 2 -3175 3 -60 -25z"/>
<path d="M2325 2616 c-22 -7 -56 -21 -75 -30 -19 -10 -314 -296 -655 -636
-531 -530 -626 -620 -660 -629 -26 -7 -199 -11 -487 -11 l-448 0 0 -75 0 -76
492 3 c490 3 493 3 543 26 40 19 168 140 665 637 427 427 626 619 652 630 33
13 188 15 1318 15 1135 0 1285 -2 1318 -16 24 -10 140 -118 342 -319 236 -235
316 -309 355 -327 50 -23 50 -23 620 -28 453 -4 575 -8 595 -19 14 -7 408
-394 875 -861 749 -747 857 -850 905 -871 l55 -24 3185 0 3185 0 55 24 c48 21
156 124 905 871 468 467 861 854 875 861 20 11 142 15 595 19 569 5 570 5 620
28 39 18 118 91 355 327 203 202 317 309 342 320 33 13 187 15 1318 15 1131 0
1285 -2 1318 -15 26 -11 228 -206 657 -634 586 -584 623 -619 678 -639 57 -21
72 -22 538 -22 l479 0 0 75 0 75 -447 0 c-290 0 -462 4 -488 11 -34 9 -129 99
-660 629 -549 548 -627 622 -680 647 l-60 28 -1335 0 -1335 0 -57 -27 c-46
-21 -111 -80 -363 -330 -169 -166 -314 -307 -323 -313 -11 -6 -232 -12 -582
-15 -565 -5 -565 -5 -625 -29 -57 -22 -105 -68 -910 -871 -467 -466 -864 -855
-882 -864 -29 -15 -314 -16 -3173 -16 -2859 0 -3144 1 -3173 16 -18 9 -414
398 -882 864 -805 803 -853 849 -910 871 -60 24 -60 24 -625 29 -503 4 -569 7
-590 21 -14 9 -159 150 -323 313 -247 248 -307 302 -355 324 l-57 27 -1320 2
c-1045 1 -1328 -1 -1360 -11z"/>
</g>
</svg>
