<?xml version="1.0" standalone="no"?>
<!DOCTYPE svg PUBLIC "-//W3C//DTD SVG 20010904//EN"
 "http://www.w3.org/TR/2001/REC-SVG-20010904/DTD/svg10.dtd">
<svg version="1.0" xmlns="http://www.w3.org/2000/svg"
 width="3032.000000pt" height="1902.000000pt" viewBox="0 0 3032.000000 1902.000000"
 preserveAspectRatio="xMidYMid meet">

<g transform="translate(0.000000,1902.000000) scale(0.100000,-0.100000)"
fill="#000000" stroke="none">
<path d="M1707 18532 l-487 -487 0 -3173 c0 -2738 -2 -3177 -14 -3200 -8 -15
-283 -295 -610 -622 l-596 -595 0 -4040 0 -4040 758 -758 757 -757 3015 0
3015 0 220 221 c121 121 232 227 247 235 23 12 423 14 2886 14 1573 0 2875 -3
2893 -6 29 -5 138 -110 689 -664 l655 -659 6979 2 6979 2 613 609 614 610 0
1710 -1 1711 -1085 1089 c-687 688 -1091 1101 -1100 1122 -21 50 -21 4409 0
4457 8 18 251 268 565 582 l551 550 0 2046 0 2047 -685 687 -685 688 -6591 4
c-5815 3 -6595 5 -6623 18 -17 8 -272 256 -566 550 l-535 535 -5685 0 -5685 0
-488 -488z"/>
</g>
</svg>
